<svg xmlns="http://www.w3.org/2000/svg" xmlns:xlink="http://www.w3.org/1999/xlink" version="1.1" x="0px" y="0px" viewBox="0 0 100 100" enable-background="new 0 0 100 100" xml:space="preserve"><rect x="47.5" y="43.8" width="5" height="10"/><rect x="40" y="43.8" width="5" height="10"/><rect x="32.5" y="43.8" width="5" height="10"/><rect x="25" y="43.8" width="5" height="10"/><path d="M75,55c-0.8,0-1.7,0.1-2.5,0.2V12.5C72.5,8.4,69.1,5,65,5H12.5C8.4,5,5,8.4,5,12.5V65c0,4.1,3.4,7.5,7.5,7.5h42.7  C55.1,73.3,55,74.2,55,75c0,11,9,20,20,20s20-9,20-20S86,55,75,55z M12.5,67.5c-1.4,0-2.5-1.1-2.5-2.5V12.5c0-1.4,1.1-2.5,2.5-2.5  H65c1.4,0,2.5,1.1,2.5,2.5v44c-1.8,0.7-3.5,1.7-5,2.9V28.8H51.3v-5h-5v-5h-15v5h-5v5H15v32.5h45.5c-1.7,1.8-3.1,3.9-4,6.3H12.5z   M46.3,28.8v5h11.3v22.5H20V33.8h11.3v-5h5v-5h5v5H46.3z M75,90c-8.3,0-15-6.7-15-15s6.7-15,15-15s15,6.7,15,15S83.3,90,75,90z"/><polygon points="73.3,76.5 68,71.2 64.5,74.7 73.3,83.5 85.7,71.2 82.2,67.6 "/></svg>